<svg width="81" height="80" viewBox="0 0 81 80" fill="none" xmlns="http://www.w3.org/2000/svg">
<path fill-rule="evenodd" clip-rule="evenodd" d="M68.2188 33.8203V33.8048V31.66C68.2188 30.4923 67.7085 29.383 66.8219 28.623L45.4251 10.2829C42.4292 7.71495 38.0083 7.71495 35.0124 10.2829L13.6156 28.623C12.729 29.383 12.2187 30.4924 12.2187 31.66V33.8048V33.8203V33.8358L12.2187 35.9806C12.2187 37.1483 12.729 38.2577 13.6156 39.0176L35.0124 57.3577C38.0083 59.9257 42.4292 59.9257 45.4251 57.3577L66.8219 39.0176C67.7085 38.2577 68.2188 37.1483 68.2188 35.9806V33.8358V33.8203ZM12.2187 40V36.1622C12.2187 37.3299 12.729 38.4393 13.6156 39.1992L35.0124 57.5394C38.0083 60.1073 42.4292 60.1073 45.4251 57.5394L66.8219 39.1992C67.7085 38.4393 68.2188 37.3299 68.2188 36.1622V40V54V68C68.2188 70.2091 66.4279 72 64.2188 72H16.2188C14.0096 72 12.2188 70.2091 12.2188 68L12.2187 54L12.2187 40Z" fill="#56CCF2"/>
<path fill-rule="evenodd" clip-rule="evenodd" d="M68.2188 33.9845V34V34.0155V36.1603C68.2188 37.328 67.7085 38.4374 66.8219 39.1973L45.4251 57.5374C42.4292 60.1054 38.0083 60.1054 35.0124 57.5374L13.6156 39.1973C12.729 38.4374 12.2187 37.328 12.2187 36.1603L12.2187 34.0155V34V33.9845V31.8397C12.2187 30.672 12.729 29.5626 13.6156 28.8027L35.0124 10.4626C38.0083 7.89464 42.4292 7.89464 45.4251 10.4626L66.8219 28.8027C67.7085 29.5626 68.2188 30.672 68.2188 31.8397V33.9845Z" fill="#2F80ED"/>
</svg>
